<mxfile host="65bd71144e">
    <diagram id="qrdoGFenofRyPDkqv7uR" name="Page-1">
        <mxGraphModel dx="1039" dy="1099" grid="1" gridSize="10" guides="1" tooltips="1" connect="1" arrows="1" fold="1" page="1" pageScale="1" pageWidth="827" pageHeight="1169" math="1" shadow="0">
            <root>
                <mxCell id="0"/>
                <mxCell id="1" parent="0"/>
                <mxCell id="144" value="" style="group" vertex="1" connectable="0" parent="1">
                    <mxGeometry x="472" y="401" width="100" height="75" as="geometry"/>
                </mxCell>
                <mxCell id="128" value="\(T\)" style="shape=partialRectangle;html=1;whiteSpace=wrap;connectable=0;overflow=hidden;fillColor=none;top=0;left=0;bottom=0;right=0;pointerEvents=1;strokeColor=none;" vertex="1" parent="144">
                    <mxGeometry width="25" height="19" as="geometry">
                        <mxRectangle width="25" height="19" as="alternateBounds"/>
                    </mxGeometry>
                </mxCell>
                <mxCell id="129" value="0" style="shape=partialRectangle;html=1;whiteSpace=wrap;connectable=0;overflow=hidden;fillColor=#f5f5f5;top=0;left=0;bottom=0;right=0;pointerEvents=1;fontColor=#333333;strokeColor=#666666;" vertex="1" parent="144">
                    <mxGeometry x="25" width="25" height="19" as="geometry">
                        <mxRectangle width="25" height="19" as="alternateBounds"/>
                    </mxGeometry>
                </mxCell>
                <mxCell id="130" value="1" style="shape=partialRectangle;html=1;whiteSpace=wrap;connectable=0;overflow=hidden;fillColor=#f5f5f5;top=0;left=0;bottom=0;right=0;pointerEvents=1;fontColor=#333333;strokeColor=#666666;" vertex="1" parent="144">
                    <mxGeometry x="50" width="25" height="19" as="geometry">
                        <mxRectangle width="25" height="19" as="alternateBounds"/>
                    </mxGeometry>
                </mxCell>
                <mxCell id="131" value="2" style="shape=partialRectangle;html=1;whiteSpace=wrap;connectable=0;overflow=hidden;fillColor=#f5f5f5;top=0;left=0;bottom=0;right=0;pointerEvents=1;fontColor=#333333;strokeColor=#666666;" vertex="1" parent="144">
                    <mxGeometry x="75" width="25" height="19" as="geometry">
                        <mxRectangle width="25" height="19" as="alternateBounds"/>
                    </mxGeometry>
                </mxCell>
                <mxCell id="132" value="1" style="shape=partialRectangle;html=1;whiteSpace=wrap;connectable=0;overflow=hidden;fillColor=#f5f5f5;top=0;left=0;bottom=0;right=0;pointerEvents=1;fontColor=#333333;strokeColor=default;" vertex="1" parent="144">
                    <mxGeometry y="19" width="25" height="19" as="geometry">
                        <mxRectangle width="25" height="19" as="alternateBounds"/>
                    </mxGeometry>
                </mxCell>
                <mxCell id="133" value="12" style="shape=partialRectangle;html=1;whiteSpace=wrap;connectable=0;overflow=hidden;fillColor=#ffe6cc;top=0;left=0;bottom=0;right=0;pointerEvents=1;fontSize=11;strokeColor=#d79b00;" vertex="1" parent="144">
                    <mxGeometry x="25" y="19" width="25" height="19" as="geometry">
                        <mxRectangle width="25" height="19" as="alternateBounds"/>
                    </mxGeometry>
                </mxCell>
                <mxCell id="134" value="4" style="shape=partialRectangle;html=1;whiteSpace=wrap;connectable=0;overflow=hidden;fillColor=#dae8fc;top=0;left=0;bottom=0;right=0;pointerEvents=1;fontSize=11;strokeColor=#6c8ebf;" vertex="1" parent="144">
                    <mxGeometry x="50" y="19" width="25" height="19" as="geometry">
                        <mxRectangle width="25" height="19" as="alternateBounds"/>
                    </mxGeometry>
                </mxCell>
                <mxCell id="135" value="7" style="shape=partialRectangle;html=1;whiteSpace=wrap;connectable=0;overflow=hidden;fillColor=#dae8fc;top=0;left=0;bottom=0;right=0;pointerEvents=1;fontSize=11;strokeColor=#6c8ebf;" vertex="1" parent="144">
                    <mxGeometry x="75" y="19" width="25" height="19" as="geometry">
                        <mxRectangle width="25" height="19" as="alternateBounds"/>
                    </mxGeometry>
                </mxCell>
                <mxCell id="136" value="2" style="shape=partialRectangle;html=1;whiteSpace=wrap;connectable=0;overflow=hidden;fillColor=#f5f5f5;top=0;left=0;bottom=0;right=0;pointerEvents=1;fontColor=#333333;strokeColor=default;" vertex="1" parent="144">
                    <mxGeometry y="38" width="25" height="18" as="geometry">
                        <mxRectangle width="25" height="18" as="alternateBounds"/>
                    </mxGeometry>
                </mxCell>
                <mxCell id="137" value="2" style="shape=partialRectangle;html=1;whiteSpace=wrap;connectable=0;overflow=hidden;fillColor=#ffe6cc;top=0;left=0;bottom=0;right=0;pointerEvents=1;fontSize=11;strokeColor=#d79b00;" vertex="1" parent="144">
                    <mxGeometry x="25" y="38" width="25" height="18" as="geometry">
                        <mxRectangle width="25" height="18" as="alternateBounds"/>
                    </mxGeometry>
                </mxCell>
                <mxCell id="138" value="7" style="shape=partialRectangle;html=1;whiteSpace=wrap;connectable=0;overflow=hidden;fillColor=#dae8fc;top=0;left=0;bottom=0;right=0;pointerEvents=1;fontSize=11;strokeColor=#6c8ebf;" vertex="1" parent="144">
                    <mxGeometry x="50" y="38" width="25" height="18" as="geometry">
                        <mxRectangle width="25" height="18" as="alternateBounds"/>
                    </mxGeometry>
                </mxCell>
                <mxCell id="139" value="5" style="shape=partialRectangle;html=1;whiteSpace=wrap;connectable=0;overflow=hidden;fillColor=#dae8fc;top=0;left=0;bottom=0;right=0;pointerEvents=1;fontSize=11;strokeColor=#6c8ebf;" vertex="1" parent="144">
                    <mxGeometry x="75" y="38" width="25" height="18" as="geometry">
                        <mxRectangle width="25" height="18" as="alternateBounds"/>
                    </mxGeometry>
                </mxCell>
                <mxCell id="140" value="3" style="shape=partialRectangle;html=1;whiteSpace=wrap;connectable=0;overflow=hidden;fillColor=#f5f5f5;top=0;left=0;bottom=0;right=0;pointerEvents=1;fontColor=#333333;strokeColor=default;" vertex="1" parent="144">
                    <mxGeometry y="56" width="25" height="19" as="geometry">
                        <mxRectangle width="25" height="19" as="alternateBounds"/>
                    </mxGeometry>
                </mxCell>
                <mxCell id="141" value="45" style="shape=partialRectangle;html=1;whiteSpace=wrap;connectable=0;overflow=hidden;fillColor=#ffe6cc;top=0;left=0;bottom=0;right=0;pointerEvents=1;fontSize=11;strokeColor=#d79b00;" vertex="1" parent="144">
                    <mxGeometry x="25" y="56" width="25" height="19" as="geometry">
                        <mxRectangle width="25" height="19" as="alternateBounds"/>
                    </mxGeometry>
                </mxCell>
                <mxCell id="142" value="2" style="shape=partialRectangle;html=1;whiteSpace=wrap;connectable=0;overflow=hidden;fillColor=#dae8fc;top=0;left=0;bottom=0;right=0;pointerEvents=1;fontSize=11;strokeColor=#6c8ebf;" vertex="1" parent="144">
                    <mxGeometry x="50" y="56" width="25" height="19" as="geometry">
                        <mxRectangle width="25" height="19" as="alternateBounds"/>
                    </mxGeometry>
                </mxCell>
                <mxCell id="143" value="6" style="shape=partialRectangle;html=1;whiteSpace=wrap;connectable=0;overflow=hidden;fillColor=#dae8fc;top=0;left=0;bottom=0;right=0;pointerEvents=1;fontSize=11;strokeColor=#6c8ebf;" vertex="1" parent="144">
                    <mxGeometry x="75" y="56" width="25" height="19" as="geometry">
                        <mxRectangle width="25" height="19" as="alternateBounds"/>
                    </mxGeometry>
                </mxCell>
                <mxCell id="145" value="" style="group" vertex="1" connectable="0" parent="1">
                    <mxGeometry x="363" y="398.5" width="75" height="80" as="geometry"/>
                </mxCell>
                <mxCell id="116" value="\(S_2\)" style="shape=partialRectangle;html=1;whiteSpace=wrap;connectable=0;overflow=hidden;fillColor=none;top=0;left=0;bottom=0;right=0;pointerEvents=1;" vertex="1" parent="145">
                    <mxGeometry width="25" height="20" as="geometry">
                        <mxRectangle width="25" height="20" as="alternateBounds"/>
                    </mxGeometry>
                </mxCell>
                <mxCell id="117" value="1" style="shape=partialRectangle;html=1;whiteSpace=wrap;connectable=0;overflow=hidden;fillColor=#f5f5f5;top=0;left=0;bottom=0;right=0;pointerEvents=1;fontColor=#333333;strokeColor=#666666;" vertex="1" parent="145">
                    <mxGeometry x="25" width="25" height="20" as="geometry">
                        <mxRectangle width="25" height="20" as="alternateBounds"/>
                    </mxGeometry>
                </mxCell>
                <mxCell id="118" value="2" style="shape=partialRectangle;html=1;whiteSpace=wrap;connectable=0;overflow=hidden;fillColor=#f5f5f5;top=0;left=0;bottom=0;right=0;pointerEvents=1;fontColor=#333333;strokeColor=#666666;" vertex="1" parent="145">
                    <mxGeometry x="50" width="25" height="20" as="geometry">
                        <mxRectangle width="25" height="20" as="alternateBounds"/>
                    </mxGeometry>
                </mxCell>
                <mxCell id="119" value="1" style="shape=partialRectangle;html=1;whiteSpace=wrap;connectable=0;overflow=hidden;fillColor=#f5f5f5;top=0;left=0;bottom=0;right=0;pointerEvents=1;fontColor=#333333;strokeColor=default;" vertex="1" parent="145">
                    <mxGeometry y="20" width="25" height="20" as="geometry">
                        <mxRectangle width="25" height="20" as="alternateBounds"/>
                    </mxGeometry>
                </mxCell>
                <mxCell id="120" value="4" style="shape=partialRectangle;html=1;whiteSpace=wrap;connectable=0;overflow=hidden;fillColor=#dae8fc;top=0;left=0;bottom=0;right=0;pointerEvents=1;fontSize=11;strokeColor=#6c8ebf;" vertex="1" parent="145">
                    <mxGeometry x="25" y="20" width="25" height="20" as="geometry">
                        <mxRectangle width="25" height="20" as="alternateBounds"/>
                    </mxGeometry>
                </mxCell>
                <mxCell id="121" value="7" style="shape=partialRectangle;html=1;whiteSpace=wrap;connectable=0;overflow=hidden;fillColor=#dae8fc;top=0;left=0;bottom=0;right=0;pointerEvents=1;fontSize=11;strokeColor=#6c8ebf;" vertex="1" parent="145">
                    <mxGeometry x="50" y="20" width="25" height="20" as="geometry">
                        <mxRectangle width="25" height="20" as="alternateBounds"/>
                    </mxGeometry>
                </mxCell>
                <mxCell id="122" value="2" style="shape=partialRectangle;html=1;whiteSpace=wrap;connectable=0;overflow=hidden;fillColor=#f5f5f5;top=0;left=0;bottom=0;right=0;pointerEvents=1;fontColor=#333333;strokeColor=default;" vertex="1" parent="145">
                    <mxGeometry y="40" width="25" height="20" as="geometry">
                        <mxRectangle width="25" height="20" as="alternateBounds"/>
                    </mxGeometry>
                </mxCell>
                <mxCell id="123" value="7" style="shape=partialRectangle;html=1;whiteSpace=wrap;connectable=0;overflow=hidden;fillColor=#dae8fc;top=0;left=0;bottom=0;right=0;pointerEvents=1;fontSize=11;strokeColor=#6c8ebf;" vertex="1" parent="145">
                    <mxGeometry x="25" y="40" width="25" height="20" as="geometry">
                        <mxRectangle width="25" height="20" as="alternateBounds"/>
                    </mxGeometry>
                </mxCell>
                <mxCell id="124" value="5" style="shape=partialRectangle;html=1;whiteSpace=wrap;connectable=0;overflow=hidden;fillColor=#dae8fc;top=0;left=0;bottom=0;right=0;pointerEvents=1;fontSize=11;strokeColor=#6c8ebf;" vertex="1" parent="145">
                    <mxGeometry x="50" y="40" width="25" height="20" as="geometry">
                        <mxRectangle width="25" height="20" as="alternateBounds"/>
                    </mxGeometry>
                </mxCell>
                <mxCell id="125" value="3" style="shape=partialRectangle;html=1;whiteSpace=wrap;connectable=0;overflow=hidden;fillColor=#f5f5f5;top=0;left=0;bottom=0;right=0;pointerEvents=1;fontColor=#333333;strokeColor=default;" vertex="1" parent="145">
                    <mxGeometry y="60" width="25" height="20" as="geometry">
                        <mxRectangle width="25" height="20" as="alternateBounds"/>
                    </mxGeometry>
                </mxCell>
                <mxCell id="126" value="2" style="shape=partialRectangle;html=1;whiteSpace=wrap;connectable=0;overflow=hidden;fillColor=#dae8fc;top=0;left=0;bottom=0;right=0;pointerEvents=1;fontSize=11;strokeColor=#6c8ebf;" vertex="1" parent="145">
                    <mxGeometry x="25" y="60" width="25" height="20" as="geometry">
                        <mxRectangle width="25" height="20" as="alternateBounds"/>
                    </mxGeometry>
                </mxCell>
                <mxCell id="127" value="6" style="shape=partialRectangle;html=1;whiteSpace=wrap;connectable=0;overflow=hidden;fillColor=#dae8fc;top=0;left=0;bottom=0;right=0;pointerEvents=1;fontSize=11;strokeColor=#6c8ebf;" vertex="1" parent="145">
                    <mxGeometry x="50" y="60" width="25" height="20" as="geometry">
                        <mxRectangle width="25" height="20" as="alternateBounds"/>
                    </mxGeometry>
                </mxCell>
                <mxCell id="146" value="" style="group" vertex="1" connectable="0" parent="1">
                    <mxGeometry x="293" y="391" width="50" height="100" as="geometry"/>
                </mxCell>
                <mxCell id="106" value="\(S_1\)" style="shape=partialRectangle;html=1;whiteSpace=wrap;connectable=0;overflow=hidden;fillColor=none;top=0;left=0;bottom=0;right=0;pointerEvents=1;" vertex="1" parent="146">
                    <mxGeometry width="25" height="20" as="geometry">
                        <mxRectangle width="25" height="20" as="alternateBounds"/>
                    </mxGeometry>
                </mxCell>
                <mxCell id="107" value="0" style="shape=partialRectangle;html=1;whiteSpace=wrap;connectable=0;overflow=hidden;fillColor=#f5f5f5;top=0;left=0;bottom=0;right=0;pointerEvents=1;fontColor=#333333;strokeColor=#666666;" vertex="1" parent="146">
                    <mxGeometry x="25" width="25" height="20" as="geometry">
                        <mxRectangle width="25" height="20" as="alternateBounds"/>
                    </mxGeometry>
                </mxCell>
                <mxCell id="108" value="1" style="shape=partialRectangle;html=1;whiteSpace=wrap;connectable=0;overflow=hidden;fillColor=#f5f5f5;top=0;left=0;bottom=0;right=0;pointerEvents=1;fontColor=#333333;strokeColor=default;" vertex="1" parent="146">
                    <mxGeometry y="20" width="25" height="20" as="geometry">
                        <mxRectangle width="25" height="20" as="alternateBounds"/>
                    </mxGeometry>
                </mxCell>
                <mxCell id="109" value="12" style="shape=partialRectangle;html=1;whiteSpace=wrap;connectable=0;overflow=hidden;fillColor=#ffe6cc;top=0;left=0;bottom=0;right=0;pointerEvents=1;fontSize=11;strokeColor=#d79b00;" vertex="1" parent="146">
                    <mxGeometry x="25" y="20" width="25" height="20" as="geometry">
                        <mxRectangle width="25" height="20" as="alternateBounds"/>
                    </mxGeometry>
                </mxCell>
                <mxCell id="110" value="2" style="shape=partialRectangle;html=1;whiteSpace=wrap;connectable=0;overflow=hidden;fillColor=#f5f5f5;top=0;left=0;bottom=0;right=0;pointerEvents=1;fontColor=#333333;strokeColor=default;" vertex="1" parent="146">
                    <mxGeometry y="40" width="25" height="20" as="geometry">
                        <mxRectangle width="25" height="20" as="alternateBounds"/>
                    </mxGeometry>
                </mxCell>
                <mxCell id="111" value="2" style="shape=partialRectangle;html=1;whiteSpace=wrap;connectable=0;overflow=hidden;fillColor=#ffe6cc;top=0;left=0;bottom=0;right=0;pointerEvents=1;fontSize=11;strokeColor=#d79b00;" vertex="1" parent="146">
                    <mxGeometry x="25" y="40" width="25" height="20" as="geometry">
                        <mxRectangle width="25" height="20" as="alternateBounds"/>
                    </mxGeometry>
                </mxCell>
                <mxCell id="112" value="3" style="shape=partialRectangle;html=1;whiteSpace=wrap;connectable=0;overflow=hidden;fillColor=#f5f5f5;top=0;left=0;bottom=0;right=0;pointerEvents=1;fontColor=#333333;strokeColor=default;" vertex="1" parent="146">
                    <mxGeometry y="60" width="25" height="20" as="geometry">
                        <mxRectangle width="25" height="20" as="alternateBounds"/>
                    </mxGeometry>
                </mxCell>
                <mxCell id="113" value="45" style="shape=partialRectangle;html=1;whiteSpace=wrap;connectable=0;overflow=hidden;fillColor=#ffe6cc;top=0;left=0;bottom=0;right=0;pointerEvents=1;fontSize=11;strokeColor=#d79b00;" vertex="1" parent="146">
                    <mxGeometry x="25" y="60" width="25" height="20" as="geometry">
                        <mxRectangle width="25" height="20" as="alternateBounds"/>
                    </mxGeometry>
                </mxCell>
                <mxCell id="114" value="4" style="shape=partialRectangle;html=1;whiteSpace=wrap;connectable=0;overflow=hidden;fillColor=#f5f5f5;top=0;left=0;bottom=0;right=0;pointerEvents=1;fontColor=#333333;strokeColor=default;" vertex="1" parent="146">
                    <mxGeometry y="80" width="25" height="20" as="geometry">
                        <mxRectangle width="25" height="20" as="alternateBounds"/>
                    </mxGeometry>
                </mxCell>
                <mxCell id="115" value="5" style="shape=partialRectangle;html=1;whiteSpace=wrap;connectable=0;overflow=hidden;fillColor=#ffe6cc;top=0;left=0;bottom=0;right=0;pointerEvents=1;fontSize=11;strokeColor=#d79b00;" vertex="1" parent="146">
                    <mxGeometry x="25" y="80" width="25" height="20" as="geometry">
                        <mxRectangle width="25" height="20" as="alternateBounds"/>
                    </mxGeometry>
                </mxCell>
                <mxCell id="186" value="" style="edgeStyle=none;html=1;fontSize=11;exitX=1;exitY=0.5;exitDx=0;exitDy=0;" edge="1" parent="1" source="183" target="185">
                    <mxGeometry relative="1" as="geometry">
                        <mxPoint x="451" y="439.4701986754967" as="sourcePoint"/>
                    </mxGeometry>
                </mxCell>
                <mxCell id="183" value="" style="whiteSpace=wrap;html=1;strokeColor=default;fontSize=11;fillColor=none;dashed=1;dashPattern=1 1;" vertex="1" parent="1">
                    <mxGeometry x="284" y="380" width="160" height="120" as="geometry"/>
                </mxCell>
                <mxCell id="184" style="edgeStyle=none;html=1;entryX=0;entryY=0.5;entryDx=0;entryDy=0;fontSize=11;exitX=0.998;exitY=0.378;exitDx=0;exitDy=0;exitPerimeter=0;" edge="1" parent="1" source="169" target="183">
                    <mxGeometry relative="1" as="geometry"/>
                </mxCell>
                <mxCell id="185" value="" style="whiteSpace=wrap;html=1;strokeColor=default;fontSize=11;fillColor=none;dashed=1;dashPattern=1 1;" vertex="1" parent="1">
                    <mxGeometry x="464" y="394" width="116" height="90" as="geometry"/>
                </mxCell>
                <mxCell id="201" value="" style="group" vertex="1" connectable="0" parent="1">
                    <mxGeometry x="172" y="358" width="100" height="161.5" as="geometry"/>
                </mxCell>
                <mxCell id="200" value="" style="whiteSpace=wrap;html=1;strokeColor=default;fontSize=11;fillColor=none;dashed=1;dashPattern=1 1;" vertex="1" parent="201">
                    <mxGeometry x="10" y="1.5" width="80" height="160" as="geometry"/>
                </mxCell>
                <mxCell id="187" value="&lt;span style=&quot;font-size: 12px;&quot;&gt;\(e_T\)&lt;/span&gt;" style="shape=partialRectangle;html=1;whiteSpace=wrap;connectable=0;overflow=hidden;fillColor=none;top=0;left=0;bottom=0;right=0;pointerEvents=1;strokeColor=none;fontSize=11;" vertex="1" parent="201">
                    <mxGeometry x="10" y="39" width="40" height="20" as="geometry">
                        <mxRectangle width="40" height="20" as="alternateBounds"/>
                    </mxGeometry>
                </mxCell>
                <mxCell id="188" value="0" style="shape=partialRectangle;html=1;whiteSpace=wrap;connectable=0;overflow=hidden;fillColor=none;top=0;left=0;bottom=0;right=0;pointerEvents=1;strokeColor=none;fontSize=11;" vertex="1" parent="201">
                    <mxGeometry x="50" y="39" width="40" height="20" as="geometry">
                        <mxRectangle width="40" height="20" as="alternateBounds"/>
                    </mxGeometry>
                </mxCell>
                <mxCell id="189" value="&lt;span style=&quot;font-size: 12px;&quot;&gt;\(r_{S_1}\)&lt;/span&gt;" style="shape=partialRectangle;html=1;whiteSpace=wrap;connectable=0;overflow=hidden;fillColor=none;top=0;left=0;bottom=0;right=0;pointerEvents=1;strokeColor=none;fontSize=11;" vertex="1" parent="201">
                    <mxGeometry x="10" y="59" width="40" height="21" as="geometry">
                        <mxRectangle width="40" height="21" as="alternateBounds"/>
                    </mxGeometry>
                </mxCell>
                <mxCell id="190" value="4" style="shape=partialRectangle;html=1;whiteSpace=wrap;connectable=0;overflow=hidden;fillColor=none;top=0;left=0;bottom=0;right=0;pointerEvents=1;strokeColor=none;fontSize=11;" vertex="1" parent="201">
                    <mxGeometry x="50" y="59" width="40" height="21" as="geometry">
                        <mxRectangle width="40" height="21" as="alternateBounds"/>
                    </mxGeometry>
                </mxCell>
                <mxCell id="191" value="&lt;span style=&quot;font-size: 12px;&quot;&gt;\(r_{S_2}\)&lt;/span&gt;" style="shape=partialRectangle;html=1;whiteSpace=wrap;connectable=0;overflow=hidden;fillColor=none;top=0;left=0;bottom=0;right=0;pointerEvents=1;strokeColor=none;fontSize=11;" vertex="1" parent="201">
                    <mxGeometry x="10" y="80" width="40" height="20" as="geometry">
                        <mxRectangle width="40" height="20" as="alternateBounds"/>
                    </mxGeometry>
                </mxCell>
                <mxCell id="192" value="3" style="shape=partialRectangle;html=1;whiteSpace=wrap;connectable=0;overflow=hidden;fillColor=none;top=0;left=0;bottom=0;right=0;pointerEvents=1;strokeColor=none;fontSize=11;" vertex="1" parent="201">
                    <mxGeometry x="50" y="80" width="40" height="20" as="geometry">
                        <mxRectangle width="40" height="20" as="alternateBounds"/>
                    </mxGeometry>
                </mxCell>
                <mxCell id="193" value="&lt;span style=&quot;font-size: 12px;&quot;&gt;\(c_{S_1}\)&lt;/span&gt;" style="shape=partialRectangle;html=1;whiteSpace=wrap;connectable=0;overflow=hidden;fillColor=none;top=0;left=0;bottom=0;right=0;pointerEvents=1;strokeColor=none;fontSize=11;" vertex="1" parent="201">
                    <mxGeometry x="10" y="100" width="40" height="19" as="geometry">
                        <mxRectangle width="40" height="19" as="alternateBounds"/>
                    </mxGeometry>
                </mxCell>
                <mxCell id="194" value="1" style="shape=partialRectangle;html=1;whiteSpace=wrap;connectable=0;overflow=hidden;fillColor=none;top=0;left=0;bottom=0;right=0;pointerEvents=1;strokeColor=none;fontSize=11;" vertex="1" parent="201">
                    <mxGeometry x="50" y="100" width="40" height="19" as="geometry">
                        <mxRectangle width="40" height="19" as="alternateBounds"/>
                    </mxGeometry>
                </mxCell>
                <mxCell id="195" value="&lt;span style=&quot;font-size: 12px;&quot;&gt;\(c_{S_2}\)&lt;/span&gt;" style="shape=partialRectangle;html=1;whiteSpace=wrap;connectable=0;overflow=hidden;fillColor=none;top=0;left=0;bottom=0;right=0;pointerEvents=1;strokeColor=none;fontSize=11;" vertex="1" parent="201">
                    <mxGeometry x="10" y="119" width="40" height="20" as="geometry">
                        <mxRectangle width="40" height="20" as="alternateBounds"/>
                    </mxGeometry>
                </mxCell>
                <mxCell id="196" value="2" style="shape=partialRectangle;html=1;whiteSpace=wrap;connectable=0;overflow=hidden;fillColor=none;top=0;left=0;bottom=0;right=0;pointerEvents=1;strokeColor=none;fontSize=11;" vertex="1" parent="201">
                    <mxGeometry x="50" y="119" width="40" height="20" as="geometry">
                        <mxRectangle width="40" height="20" as="alternateBounds"/>
                    </mxGeometry>
                </mxCell>
                <mxCell id="197" value="&lt;span style=&quot;font-size: 12px;&quot;&gt;\(j_T\)&lt;/span&gt;" style="shape=partialRectangle;html=1;whiteSpace=wrap;connectable=0;overflow=hidden;fillColor=none;top=0;left=0;bottom=0;right=0;pointerEvents=1;strokeColor=none;fontSize=11;" vertex="1" parent="201">
                    <mxGeometry x="10" y="139" width="40" height="22" as="geometry">
                        <mxRectangle width="40" height="22" as="alternateBounds"/>
                    </mxGeometry>
                </mxCell>
                <mxCell id="198" value="inner" style="shape=partialRectangle;html=1;whiteSpace=wrap;connectable=0;overflow=hidden;fillColor=none;top=0;left=0;bottom=0;right=0;pointerEvents=1;strokeColor=none;fontSize=11;" vertex="1" parent="201">
                    <mxGeometry x="50" y="139" width="40" height="22" as="geometry">
                        <mxRectangle width="40" height="22" as="alternateBounds"/>
                    </mxGeometry>
                </mxCell>
                <mxCell id="199" value="Data &lt;br&gt;Characteristics" style="text;html=1;align=center;verticalAlign=middle;resizable=0;points=[];autosize=1;strokeColor=none;fillColor=none;fontSize=11;" vertex="1" parent="201">
                    <mxGeometry width="100" height="40" as="geometry"/>
                </mxCell>
                <mxCell id="202" style="edgeStyle=none;html=1;entryX=0;entryY=0.5;entryDx=0;entryDy=0;fontSize=11;" edge="1" parent="1" source="200" target="183">
                    <mxGeometry relative="1" as="geometry"/>
                </mxCell>
            </root>
        </mxGraphModel>
    </diagram>
</mxfile>